<svg width="29" height="40" fill="none" xmlns="http://www.w3.org/2000/svg"><path d="M10.212 3.615v1.723H5.805V0h4.407v1.889H7.694v1.726h2.518zm4.53-1.726h1.761V0h-4.407v1.889c.59.59.897.872 1.75 1.725l-1.75.001v1.723h4.407V3.615l-1.76-1.726zm6.248 0h1.76V0h-4.407v1.889c.59.59.897.872 1.75 1.725l-1.75.001v1.723h4.407V3.615l-1.76-1.726zm7.565 5.987l-2.677 29L14.278 40 2.676 36.877 0 7.876h28.555zm-5.395 5.897H5.217l.432 3.502h9.102l-.484.201-8.303 3.458.276 3.423 8.027.026 4.302.014-.275 4.565-4.027 1.133v-.003l-.033.009-3.89-.982-.235-2.833H6.476l.472 5.47 7.319 2.164v-.004l.013.004 7.28-2.125.945-10.86h-8.258l.02-.01 8.54-3.65.353-3.502z" fill="#fff"/></svg>